<svg xmlns="http://www.w3.org/2000/svg" width="26" height="26" viewBox="0 0 26 26"><path d="M 13 0 A 12.999989 12.999989 0 0 0 0 13 A 12.999989 12.999989 0 0 0 13 26 A 12.999989 12.999989 0 0 0 26 13 A 12.999989 12.999989 0 0 0 13 0 z M 9.9960938 8.0058594 C 11.012513 8.0598594 12.035401 8.5031406 12.837891 9.3066406 L 13 9.46875 L 13.162109 9.3066406 C 14.76725 7.6997406 17.285787 7.5400688 18.787109 9.0429688 C 20.2885 10.545969 20.132778 13.070334 18.527344 14.677734 L 18.013672 15.191406 L 13.353516 19.857422 C 13.158477 20.051322 12.843476 20.051322 12.648438 19.857422 L 7.9863281 15.191406 L 7.4726562 14.677734 C 5.867295 13.070334 5.7095431 10.545969 7.2109375 9.0429688 C 7.9614454 8.2916688 8.9802089 7.9528594 9.9960938 8.0058594 z "/></svg>