<?xml version="1.0" encoding="UTF-8"?><!DOCTYPE svg PUBLIC "-//W3C//DTD SVG 1.1//EN" "http://www.w3.org/Graphics/SVG/1.1/DTD/svg11.dtd"><svg xmlns="http://www.w3.org/2000/svg" xmlns:xlink="http://www.w3.org/1999/xlink" width="32" height="32" viewBox="0 0 32 32" fill="#000"><path d="M24 32a2 2 0 0 0 2-2V2a2 2 0 0 0-2-2H10a2 2 0 0 0-2 2v28a2 2 0 0 0 2 2h14zm-8-3.124a1.124 1.124 0 1 1 2.247 0 1.124 1.124 0 0 1-2.247 0zM21 2a1 1 0 0 1 0 2h-2a1 1 0 0 1 0-2h2zm-5 1a1 1 0 1 1-2 0 1 1 0 0 1 2 0zm-6 3h14v20H10V6z"/><metadata><rdf:RDF xmlns:rdf="http://www.w3.org/1999/02/22-rdf-syntax-ns#" xmlns:rdfs="http://www.w3.org/2000/01/rdf-schema#" xmlns:dc="http://purl.org/dc/elements/1.1/"><rdf:Description about="https://iconscout.com/legal#licenses" dc:title="mobile" dc:description="mobile" dc:publisher="Iconscout" dc:date="2017-09-25" dc:format="image/svg+xml" dc:language="en"><dc:creator><rdf:Bag><rdf:li>Elegant Themes</rdf:li></rdf:Bag></dc:creator></rdf:Description></rdf:RDF></metadata></svg>